# xmcd
#
# Track frame offsets: 
#        150
#        17305
#        33352
#        51980
#        53447
#
# Disc length: 731 seconds
#
# Revision: 0
# Processed by: cddbd v1.5.2PL0 Copyright (c) Steve Scherf et al.
# Submitted via: ExactAudioCopyFreeDBPlugin 1.0
#
DISCID=2f02d905
DTITLE=Kevon Edmonds - No Love (I'm Not Used To) [CDS Promo)
DYEAR=2000
DGENRE=R&B
TTITLE0=No Love (I'm Not Used To) (Joe's Mix)
TTITLE1=No Love (I'm Not Used To) (Joe's Instrumental Mix)
TTITLE2=No Love (I'm Not Used To) (Radio Edit)
TTITLE3=No Love (I'm Not Used To) (Joe's Mix Callout Hook)
TTITLE4=No Love (I'm Not Used To) (Original Callout Hook)
EXTD=
EXTT0=
EXTT1=
EXTT2=
EXTT3=
EXTT4=
PLAYORDER=
